# xmcd
#
# Track frame offsets: 
#        150
#        23513
#        48112
#        66262
#        102237
#        125512
#        146662
#        171903
#        189304
#        230088
#        261012
#
# Disc length: 3815 seconds
#
# Revision: 0
# Processed by: cddbd v1.5.2PL0 Copyright (c) Steve Scherf et al.
# Submitted via: ExactAudioCopy v1.0b3
#
DISCID=940ee50b
DTITLE=Various Artist - Inre Harmoni 3
DYEAR=2008
DGENRE=New Age
TTITLE0=Björn Melander - Sundance 
TTITLE1=Hans Gustafsson - Treasure of promises
TTITLE2=Mathias Tegen - Beautiful memories
TTITLE3=Andreas Andersson - Blue sky
TTITLE4=Tomas Edström - Morning dew
TTITLE5=Mathias Tegen - Shimmering lake
TTITLE6=Hans Gustafsson - Eastern harmony
TTITLE7=Tomas Edström - From above
TTITLE8=Andreas Andersson - Serenity
TTITLE9=Hans Gustafsson - Fly with me
TTITLE10=Andreas Andersson - Daylight
EXTD=
EXTT0=
EXTT1=
EXTT2=
EXTT3=
EXTT4=
EXTT5=
EXTT6=
EXTT7=
EXTT8=
EXTT9=
EXTT10=
PLAYORDER=
